<svg id="mermaid-svg" width="100%" xmlns="http://www.w3.org/2000/svg" style="max-width: 1828px;" viewBox="-210 -10 1828 4233" role="graphics-document document" aria-roledescription="sequence" xmlns:xlink="http://www.w3.org/1999/xlink"><style xmlns="http://www.w3.org/1999/xhtml">@import url("https://cdnjs.cloudflare.com/ajax/libs/font-awesome/6.5.2/css/all.min.css");</style><g><rect x="1282" y="4147" fill="#eaeaea" stroke="#666" width="150" height="65" name="L" rx="3" ry="3" class="actor actor-bottom"/><text x="1357" y="4179.5" dominant-baseline="central" alignment-baseline="central" class="actor" style="text-anchor: middle; font-size: 16px; font-weight: 400;"><tspan x="1357" dy="0">LOCK</tspan></text></g><g><rect x="801" y="4147" fill="#eaeaea" stroke="#666" width="150" height="65" name="F" rx="3" ry="3" class="actor actor-bottom"/><text x="876" y="4179.5" dominant-baseline="central" alignment-baseline="central" class="actor" style="text-anchor: middle; font-size: 16px; font-weight: 400;"><tspan x="876" dy="0">FRONT</tspan></text></g><g><rect x="0" y="4147" fill="#eaeaea" stroke="#666" width="150" height="65" name="B" rx="3" ry="3" class="actor actor-bottom"/><text x="75" y="4179.5" dominant-baseline="central" alignment-baseline="central" class="actor" style="text-anchor: middle; font-size: 16px; font-weight: 400;"><tspan x="75" dy="0">BACK</tspan></text></g><g><line id="actor2" x1="1357" y1="5" x2="1357" y2="4147" class="200" stroke-width="0.5px" stroke="#999"/><g id="root-2"><rect x="1282" y="0" fill="#eaeaea" stroke="#666" width="150" height="65" name="L" rx="3" ry="3" class="actor actor-top"/><text x="1357" y="32.5" dominant-baseline="central" alignment-baseline="central" class="actor" style="text-anchor: middle; font-size: 16px; font-weight: 400;"><tspan x="1357" dy="0">LOCK</tspan></text></g></g><g><line id="actor1" x1="876" y1="5" x2="876" y2="4147" class="200" stroke-width="0.5px" stroke="#999"/><g id="root-1"><rect x="801" y="0" fill="#eaeaea" stroke="#666" width="150" height="65" name="F" rx="3" ry="3" class="actor actor-top"/><text x="876" y="32.5" dominant-baseline="central" alignment-baseline="central" class="actor" style="text-anchor: middle; font-size: 16px; font-weight: 400;"><tspan x="876" dy="0">FRONT</tspan></text></g></g><g><line id="actor0" x1="75" y1="5" x2="75" y2="4147" class="200" stroke-width="0.5px" stroke="#999"/><g id="root-0"><rect x="0" y="0" fill="#eaeaea" stroke="#666" width="150" height="65" name="B" rx="3" ry="3" class="actor actor-top"/><text x="75" y="32.5" dominant-baseline="central" alignment-baseline="central" class="actor" style="text-anchor: middle; font-size: 16px; font-weight: 400;"><tspan x="75" dy="0">BACK</tspan></text></g></g><style>#mermaid-svg{font-family:"trebuchet ms",verdana,arial,sans-serif;font-size:16px;fill:#333;}#mermaid-svg .error-icon{fill:#552222;}#mermaid-svg .error-text{fill:#552222;stroke:#552222;}#mermaid-svg .edge-thickness-normal{stroke-width:2px;}#mermaid-svg .edge-thickness-thick{stroke-width:3.5px;}#mermaid-svg .edge-pattern-solid{stroke-dasharray:0;}#mermaid-svg .edge-pattern-dashed{stroke-dasharray:3;}#mermaid-svg .edge-pattern-dotted{stroke-dasharray:2;}#mermaid-svg .marker{fill:#333333;stroke:#333333;}#mermaid-svg .marker.cross{stroke:#333333;}#mermaid-svg svg{font-family:"trebuchet ms",verdana,arial,sans-serif;font-size:16px;}#mermaid-svg .actor{stroke:hsl(259.6261682243, 59.7765363128%, 87.9019607843%);fill:#ECECFF;}#mermaid-svg text.actor&gt;tspan{fill:black;stroke:none;}#mermaid-svg .actor-line{stroke:grey;}#mermaid-svg .messageLine0{stroke-width:1.5;stroke-dasharray:none;stroke:#333;}#mermaid-svg .messageLine1{stroke-width:1.5;stroke-dasharray:2,2;stroke:#333;}#mermaid-svg #arrowhead path{fill:#333;stroke:#333;}#mermaid-svg .sequenceNumber{fill:white;}#mermaid-svg #sequencenumber{fill:#333;}#mermaid-svg #crosshead path{fill:#333;stroke:#333;}#mermaid-svg .messageText{fill:#333;stroke:none;}#mermaid-svg .labelBox{stroke:hsl(259.6261682243, 59.7765363128%, 87.9019607843%);fill:#ECECFF;}#mermaid-svg .labelText,#mermaid-svg .labelText&gt;tspan{fill:black;stroke:none;}#mermaid-svg .loopText,#mermaid-svg .loopText&gt;tspan{fill:black;stroke:none;}#mermaid-svg .loopLine{stroke-width:2px;stroke-dasharray:2,2;stroke:hsl(259.6261682243, 59.7765363128%, 87.9019607843%);fill:hsl(259.6261682243, 59.7765363128%, 87.9019607843%);}#mermaid-svg .note{stroke:#aaaa33;fill:#fff5ad;}#mermaid-svg .noteText,#mermaid-svg .noteText&gt;tspan{fill:black;stroke:none;}#mermaid-svg .activation0{fill:#f4f4f4;stroke:#666;}#mermaid-svg .activation1{fill:#f4f4f4;stroke:#666;}#mermaid-svg .activation2{fill:#f4f4f4;stroke:#666;}#mermaid-svg .actorPopupMenu{position:absolute;}#mermaid-svg .actorPopupMenuPanel{position:absolute;fill:#ECECFF;box-shadow:0px 8px 16px 0px rgba(0,0,0,0.2);filter:drop-shadow(3px 5px 2px rgb(0 0 0 / 0.4));}#mermaid-svg .actor-man line{stroke:hsl(259.6261682243, 59.7765363128%, 87.9019607843%);fill:#ECECFF;}#mermaid-svg .actor-man circle,#mermaid-svg line{stroke:hsl(259.6261682243, 59.7765363128%, 87.9019607843%);fill:#ECECFF;stroke-width:2px;}#mermaid-svg :root{--mermaid-font-family:"trebuchet ms",verdana,arial,sans-serif;}</style><g/><defs><symbol id="computer" width="24" height="24"><path transform="scale(.5)" d="M2 2v13h20v-13h-20zm18 11h-16v-9h16v9zm-10.228 6l.466-1h3.524l.467 1h-4.457zm14.228 3h-24l2-6h2.104l-1.33 4h18.45l-1.297-4h2.073l2 6zm-5-10h-14v-7h14v7z"/></symbol></defs><defs><symbol id="database" fill-rule="evenodd" clip-rule="evenodd"><path transform="scale(.5)" d="M12.258.001l.256.004.255.005.253.008.251.01.249.012.247.015.246.016.242.019.241.02.239.023.236.024.233.027.231.028.229.031.225.032.223.034.22.036.217.038.214.04.211.041.208.043.205.045.201.046.198.048.194.05.191.051.187.053.183.054.18.056.175.057.172.059.168.06.163.061.16.063.155.064.15.066.074.033.073.033.071.034.07.034.069.035.068.035.067.035.066.035.064.036.064.036.062.036.06.036.06.037.058.037.058.037.055.038.055.038.053.038.052.038.051.039.05.039.048.039.047.039.045.04.044.04.043.04.041.04.04.041.039.041.037.041.036.041.034.041.033.042.032.042.03.042.029.042.027.042.026.043.024.043.023.043.021.043.02.043.018.044.017.043.015.044.013.044.012.044.011.045.009.044.007.045.006.045.004.045.002.045.001.045v17l-.001.045-.002.045-.004.045-.006.045-.007.045-.009.044-.011.045-.012.044-.013.044-.015.044-.017.043-.018.044-.02.043-.021.043-.023.043-.024.043-.026.043-.027.042-.029.042-.03.042-.032.042-.033.042-.034.041-.036.041-.037.041-.039.041-.04.041-.041.04-.043.04-.044.04-.045.04-.047.039-.048.039-.05.039-.051.039-.052.038-.053.038-.055.038-.055.038-.058.037-.058.037-.06.037-.06.036-.062.036-.064.036-.064.036-.066.035-.067.035-.068.035-.069.035-.07.034-.071.034-.073.033-.074.033-.15.066-.155.064-.16.063-.163.061-.168.06-.172.059-.175.057-.18.056-.183.054-.187.053-.191.051-.194.05-.198.048-.201.046-.205.045-.208.043-.211.041-.214.04-.217.038-.22.036-.223.034-.225.032-.229.031-.231.028-.233.027-.236.024-.239.023-.241.02-.242.019-.246.016-.247.015-.249.012-.251.01-.253.008-.255.005-.256.004-.258.001-.258-.001-.256-.004-.255-.005-.253-.008-.251-.01-.249-.012-.247-.015-.245-.016-.243-.019-.241-.02-.238-.023-.236-.024-.234-.027-.231-.028-.228-.031-.226-.032-.223-.034-.22-.036-.217-.038-.214-.04-.211-.041-.208-.043-.204-.045-.201-.046-.198-.048-.195-.05-.19-.051-.187-.053-.184-.054-.179-.056-.176-.057-.172-.059-.167-.06-.164-.061-.159-.063-.155-.064-.151-.066-.074-.033-.072-.033-.072-.034-.07-.034-.069-.035-.068-.035-.067-.035-.066-.035-.064-.036-.063-.036-.062-.036-.061-.036-.06-.037-.058-.037-.057-.037-.056-.038-.055-.038-.053-.038-.052-.038-.051-.039-.049-.039-.049-.039-.046-.039-.046-.04-.044-.04-.043-.04-.041-.04-.04-.041-.039-.041-.037-.041-.036-.041-.034-.041-.033-.042-.032-.042-.03-.042-.029-.042-.027-.042-.026-.043-.024-.043-.023-.043-.021-.043-.02-.043-.018-.044-.017-.043-.015-.044-.013-.044-.012-.044-.011-.045-.009-.044-.007-.045-.006-.045-.004-.045-.002-.045-.001-.045v-17l.001-.045.002-.045.004-.045.006-.045.007-.045.009-.044.011-.045.012-.044.013-.044.015-.044.017-.043.018-.044.02-.043.021-.043.023-.043.024-.043.026-.043.027-.042.029-.042.03-.042.032-.042.033-.042.034-.041.036-.041.037-.041.039-.041.04-.041.041-.04.043-.04.044-.04.046-.04.046-.039.049-.039.049-.039.051-.039.052-.038.053-.038.055-.038.056-.038.057-.037.058-.037.06-.037.061-.036.062-.036.063-.036.064-.036.066-.035.067-.035.068-.035.069-.035.07-.034.072-.034.072-.033.074-.033.151-.066.155-.064.159-.063.164-.061.167-.06.172-.059.176-.057.179-.056.184-.054.187-.053.19-.051.195-.05.198-.048.201-.046.204-.045.208-.043.211-.041.214-.04.217-.038.22-.036.223-.034.226-.032.228-.031.231-.028.234-.027.236-.024.238-.023.241-.02.243-.019.245-.016.247-.015.249-.012.251-.01.253-.008.255-.005.256-.004.258-.001.258.001zm-9.258 20.499v.01l.001.021.003.021.004.022.005.021.006.022.007.022.009.023.01.022.011.023.012.023.013.023.015.023.016.024.017.023.018.024.019.024.021.024.022.025.023.024.024.025.052.049.056.05.061.051.066.051.07.051.075.051.079.052.084.052.088.052.092.052.097.052.102.051.105.052.11.052.114.051.119.051.123.051.127.05.131.05.135.05.139.048.144.049.147.047.152.047.155.047.16.045.163.045.167.043.171.043.176.041.178.041.183.039.187.039.19.037.194.035.197.035.202.033.204.031.209.03.212.029.216.027.219.025.222.024.226.021.23.02.233.018.236.016.24.015.243.012.246.01.249.008.253.005.256.004.259.001.26-.001.257-.004.254-.005.25-.008.247-.011.244-.012.241-.014.237-.016.233-.018.231-.021.226-.021.224-.024.22-.026.216-.027.212-.028.21-.031.205-.031.202-.034.198-.034.194-.036.191-.037.187-.039.183-.04.179-.04.175-.042.172-.043.168-.044.163-.045.16-.046.155-.046.152-.047.148-.048.143-.049.139-.049.136-.05.131-.05.126-.05.123-.051.118-.052.114-.051.11-.052.106-.052.101-.052.096-.052.092-.052.088-.053.083-.051.079-.052.074-.052.07-.051.065-.051.06-.051.056-.05.051-.05.023-.024.023-.025.021-.024.02-.024.019-.024.018-.024.017-.024.015-.023.014-.024.013-.023.012-.023.01-.023.01-.022.008-.022.006-.022.006-.022.004-.022.004-.021.001-.021.001-.021v-4.127l-.077.055-.08.053-.083.054-.085.053-.087.052-.09.052-.093.051-.095.05-.097.05-.1.049-.102.049-.105.048-.106.047-.109.047-.111.046-.114.045-.115.045-.118.044-.12.043-.122.042-.124.042-.126.041-.128.04-.13.04-.132.038-.134.038-.135.037-.138.037-.139.035-.142.035-.143.034-.144.033-.147.032-.148.031-.15.03-.151.03-.153.029-.154.027-.156.027-.158.026-.159.025-.161.024-.162.023-.163.022-.165.021-.166.02-.167.019-.169.018-.169.017-.171.016-.173.015-.173.014-.175.013-.175.012-.177.011-.178.01-.179.008-.179.008-.181.006-.182.005-.182.004-.184.003-.184.002h-.37l-.184-.002-.184-.003-.182-.004-.182-.005-.181-.006-.179-.008-.179-.008-.178-.01-.176-.011-.176-.012-.175-.013-.173-.014-.172-.015-.171-.016-.17-.017-.169-.018-.167-.019-.166-.02-.165-.021-.163-.022-.162-.023-.161-.024-.159-.025-.157-.026-.156-.027-.155-.027-.153-.029-.151-.03-.15-.03-.148-.031-.146-.032-.145-.033-.143-.034-.141-.035-.14-.035-.137-.037-.136-.037-.134-.038-.132-.038-.13-.04-.128-.04-.126-.041-.124-.042-.122-.042-.12-.044-.117-.043-.116-.045-.113-.045-.112-.046-.109-.047-.106-.047-.105-.048-.102-.049-.1-.049-.097-.05-.095-.05-.093-.052-.09-.051-.087-.052-.085-.053-.083-.054-.08-.054-.077-.054v4.127zm0-5.654v.011l.001.021.003.021.004.021.005.022.006.022.007.022.009.022.01.022.011.023.012.023.013.023.015.024.016.023.017.024.018.024.019.024.021.024.022.024.023.025.024.024.052.05.056.05.061.05.066.051.07.051.075.052.079.051.084.052.088.052.092.052.097.052.102.052.105.052.11.051.114.051.119.052.123.05.127.051.131.05.135.049.139.049.144.048.147.048.152.047.155.046.16.045.163.045.167.044.171.042.176.042.178.04.183.04.187.038.19.037.194.036.197.034.202.033.204.032.209.03.212.028.216.027.219.025.222.024.226.022.23.02.233.018.236.016.24.014.243.012.246.01.249.008.253.006.256.003.259.001.26-.001.257-.003.254-.006.25-.008.247-.01.244-.012.241-.015.237-.016.233-.018.231-.02.226-.022.224-.024.22-.025.216-.027.212-.029.21-.03.205-.032.202-.033.198-.035.194-.036.191-.037.187-.039.183-.039.179-.041.175-.042.172-.043.168-.044.163-.045.16-.045.155-.047.152-.047.148-.048.143-.048.139-.05.136-.049.131-.05.126-.051.123-.051.118-.051.114-.052.11-.052.106-.052.101-.052.096-.052.092-.052.088-.052.083-.052.079-.052.074-.051.07-.052.065-.051.06-.05.056-.051.051-.049.023-.025.023-.024.021-.025.02-.024.019-.024.018-.024.017-.024.015-.023.014-.023.013-.024.012-.022.01-.023.01-.023.008-.022.006-.022.006-.022.004-.021.004-.022.001-.021.001-.021v-4.139l-.077.054-.08.054-.083.054-.085.052-.087.053-.09.051-.093.051-.095.051-.097.05-.1.049-.102.049-.105.048-.106.047-.109.047-.111.046-.114.045-.115.044-.118.044-.12.044-.122.042-.124.042-.126.041-.128.04-.13.039-.132.039-.134.038-.135.037-.138.036-.139.036-.142.035-.143.033-.144.033-.147.033-.148.031-.15.03-.151.03-.153.028-.154.028-.156.027-.158.026-.159.025-.161.024-.162.023-.163.022-.165.021-.166.02-.167.019-.169.018-.169.017-.171.016-.173.015-.173.014-.175.013-.175.012-.177.011-.178.009-.179.009-.179.007-.181.007-.182.005-.182.004-.184.003-.184.002h-.37l-.184-.002-.184-.003-.182-.004-.182-.005-.181-.007-.179-.007-.179-.009-.178-.009-.176-.011-.176-.012-.175-.013-.173-.014-.172-.015-.171-.016-.17-.017-.169-.018-.167-.019-.166-.02-.165-.021-.163-.022-.162-.023-.161-.024-.159-.025-.157-.026-.156-.027-.155-.028-.153-.028-.151-.03-.15-.03-.148-.031-.146-.033-.145-.033-.143-.033-.141-.035-.14-.036-.137-.036-.136-.037-.134-.038-.132-.039-.13-.039-.128-.04-.126-.041-.124-.042-.122-.043-.12-.043-.117-.044-.116-.044-.113-.046-.112-.046-.109-.046-.106-.047-.105-.048-.102-.049-.1-.049-.097-.05-.095-.051-.093-.051-.09-.051-.087-.053-.085-.052-.083-.054-.08-.054-.077-.054v4.139zm0-5.666v.011l.001.02.003.022.004.021.005.022.006.021.007.022.009.023.01.022.011.023.012.023.013.023.015.023.016.024.017.024.018.023.019.024.021.025.022.024.023.024.024.025.052.05.056.05.061.05.066.051.07.051.075.052.079.051.084.052.088.052.092.052.097.052.102.052.105.051.11.052.114.051.119.051.123.051.127.05.131.05.135.05.139.049.144.048.147.048.152.047.155.046.16.045.163.045.167.043.171.043.176.042.178.04.183.04.187.038.19.037.194.036.197.034.202.033.204.032.209.03.212.028.216.027.219.025.222.024.226.021.23.02.233.018.236.017.24.014.243.012.246.01.249.008.253.006.256.003.259.001.26-.001.257-.003.254-.006.25-.008.247-.01.244-.013.241-.014.237-.016.233-.018.231-.02.226-.022.224-.024.22-.025.216-.027.212-.029.21-.03.205-.032.202-.033.198-.035.194-.036.191-.037.187-.039.183-.039.179-.041.175-.042.172-.043.168-.044.163-.045.16-.045.155-.047.152-.047.148-.048.143-.049.139-.049.136-.049.131-.051.126-.05.123-.051.118-.052.114-.051.11-.052.106-.052.101-.052.096-.052.092-.052.088-.052.083-.052.079-.052.074-.052.07-.051.065-.051.06-.051.056-.05.051-.049.023-.025.023-.025.021-.024.02-.024.019-.024.018-.024.017-.024.015-.023.014-.024.013-.023.012-.023.01-.022.01-.023.008-.022.006-.022.006-.022.004-.022.004-.021.001-.021.001-.021v-4.153l-.077.054-.08.054-.083.053-.085.053-.087.053-.09.051-.093.051-.095.051-.097.05-.1.049-.102.048-.105.048-.106.048-.109.046-.111.046-.114.046-.115.044-.118.044-.12.043-.122.043-.124.042-.126.041-.128.04-.13.039-.132.039-.134.038-.135.037-.138.036-.139.036-.142.034-.143.034-.144.033-.147.032-.148.032-.15.03-.151.03-.153.028-.154.028-.156.027-.158.026-.159.024-.161.024-.162.023-.163.023-.165.021-.166.02-.167.019-.169.018-.169.017-.171.016-.173.015-.173.014-.175.013-.175.012-.177.01-.178.01-.179.009-.179.007-.181.006-.182.006-.182.004-.184.003-.184.001-.185.001-.185-.001-.184-.001-.184-.003-.182-.004-.182-.006-.181-.006-.179-.007-.179-.009-.178-.01-.176-.01-.176-.012-.175-.013-.173-.014-.172-.015-.171-.016-.17-.017-.169-.018-.167-.019-.166-.02-.165-.021-.163-.023-.162-.023-.161-.024-.159-.024-.157-.026-.156-.027-.155-.028-.153-.028-.151-.03-.15-.03-.148-.032-.146-.032-.145-.033-.143-.034-.141-.034-.14-.036-.137-.036-.136-.037-.134-.038-.132-.039-.13-.039-.128-.041-.126-.041-.124-.041-.122-.043-.12-.043-.117-.044-.116-.044-.113-.046-.112-.046-.109-.046-.106-.048-.105-.048-.102-.048-.1-.05-.097-.049-.095-.051-.093-.051-.09-.052-.087-.052-.085-.053-.083-.053-.08-.054-.077-.054v4.153zm8.74-8.179l-.257.004-.254.005-.25.008-.247.011-.244.012-.241.014-.237.016-.233.018-.231.021-.226.022-.224.023-.22.026-.216.027-.212.028-.21.031-.205.032-.202.033-.198.034-.194.036-.191.038-.187.038-.183.04-.179.041-.175.042-.172.043-.168.043-.163.045-.16.046-.155.046-.152.048-.148.048-.143.048-.139.049-.136.05-.131.05-.126.051-.123.051-.118.051-.114.052-.11.052-.106.052-.101.052-.096.052-.092.052-.088.052-.083.052-.079.052-.074.051-.07.052-.065.051-.06.05-.056.05-.051.05-.023.025-.023.024-.021.024-.02.025-.019.024-.018.024-.017.023-.015.024-.014.023-.013.023-.012.023-.01.023-.01.022-.008.022-.006.023-.006.021-.004.022-.004.021-.001.021-.001.021.001.021.001.021.004.021.004.022.006.021.006.023.008.022.01.022.01.023.012.023.013.023.014.023.015.024.017.023.018.024.019.024.02.025.021.024.023.024.023.025.051.05.056.05.06.05.065.051.07.052.074.051.079.052.083.052.088.052.092.052.096.052.101.052.106.052.11.052.114.052.118.051.123.051.126.051.131.05.136.05.139.049.143.048.148.048.152.048.155.046.16.046.163.045.168.043.172.043.175.042.179.041.183.04.187.038.191.038.194.036.198.034.202.033.205.032.21.031.212.028.216.027.22.026.224.023.226.022.231.021.233.018.237.016.241.014.244.012.247.011.25.008.254.005.257.004.26.001.26-.001.257-.004.254-.005.25-.008.247-.011.244-.012.241-.014.237-.016.233-.018.231-.021.226-.022.224-.023.22-.026.216-.027.212-.028.21-.031.205-.032.202-.033.198-.034.194-.036.191-.038.187-.038.183-.04.179-.041.175-.042.172-.043.168-.043.163-.045.16-.046.155-.046.152-.048.148-.048.143-.048.139-.049.136-.05.131-.05.126-.051.123-.051.118-.051.114-.052.11-.052.106-.052.101-.052.096-.052.092-.052.088-.052.083-.052.079-.052.074-.051.07-.052.065-.051.06-.05.056-.05.051-.05.023-.025.023-.024.021-.024.02-.025.019-.024.018-.024.017-.023.015-.024.014-.023.013-.023.012-.023.01-.023.01-.022.008-.022.006-.023.006-.021.004-.022.004-.021.001-.021.001-.021-.001-.021-.001-.021-.004-.021-.004-.022-.006-.021-.006-.023-.008-.022-.01-.022-.01-.023-.012-.023-.013-.023-.014-.023-.015-.024-.017-.023-.018-.024-.019-.024-.02-.025-.021-.024-.023-.024-.023-.025-.051-.05-.056-.05-.06-.05-.065-.051-.07-.052-.074-.051-.079-.052-.083-.052-.088-.052-.092-.052-.096-.052-.101-.052-.106-.052-.11-.052-.114-.052-.118-.051-.123-.051-.126-.051-.131-.05-.136-.05-.139-.049-.143-.048-.148-.048-.152-.048-.155-.046-.16-.046-.163-.045-.168-.043-.172-.043-.175-.042-.179-.041-.183-.04-.187-.038-.191-.038-.194-.036-.198-.034-.202-.033-.205-.032-.21-.031-.212-.028-.216-.027-.22-.026-.224-.023-.226-.022-.231-.021-.233-.018-.237-.016-.241-.014-.244-.012-.247-.011-.25-.008-.254-.005-.257-.004-.26-.001-.26.001z"/></symbol></defs><defs><symbol id="clock" width="24" height="24"><path transform="scale(.5)" d="M12 2c5.514 0 10 4.486 10 10s-4.486 10-10 10-10-4.486-10-10 4.486-10 10-10zm0-2c-6.627 0-12 5.373-12 12s5.373 12 12 12 12-5.373 12-12-5.373-12-12-12zm5.848 12.459c.202.038.202.333.001.372-1.907.361-6.045 1.111-6.547 1.111-.719 0-1.301-.582-1.301-1.301 0-.512.77-5.447 1.125-7.445.034-.192.312-.181.343.014l.985 6.238 5.394 1.011z"/></symbol></defs><defs><marker id="arrowhead" refX="7.9" refY="5" markerUnits="userSpaceOnUse" markerWidth="12" markerHeight="12" orient="auto"><path d="M 0 0 L 10 5 L 0 10 z"/></marker></defs><defs><marker id="crosshead" markerWidth="15" markerHeight="8" orient="auto" refX="4" refY="4.5"><path fill="none" stroke="#000000" stroke-width="1pt" d="M 1,2 L 6,7 M 6,2 L 1,7" style="stroke-dasharray: 0, 0;"/></marker></defs><defs><marker id="filled-head" refX="15.5" refY="7" markerWidth="20" markerHeight="28" orient="auto"><path d="M 18,7 L9,13 L14,7 L9,1 Z"/></marker></defs><defs><marker id="sequencenumber" refX="15" refY="15" markerWidth="60" markerHeight="40" orient="auto"><circle cx="15" cy="15" r="6"/></marker></defs><g/><g/><g/><g/><g><line x1="-9" y1="714" x2="991" y2="714" class="loopLine"/><line x1="991" y1="714" x2="991" y2="1070" class="loopLine"/><line x1="-9" y1="1070" x2="991" y2="1070" class="loopLine"/><line x1="-9" y1="714" x2="-9" y2="1070" class="loopLine"/><line x1="-9" y1="808" x2="991" y2="808" class="loopLine" style="stroke-dasharray: 3, 3;"/><polygon points="-9,714 41,714 41,727 32.6,734 -9,734" class="labelBox"/><text x="16" y="727" text-anchor="middle" dominant-baseline="middle" alignment-baseline="middle" class="labelText" style="font-size: 16px; font-weight: 400;">alt</text><text x="516" y="732" text-anchor="middle" class="loopText" style="font-size: 16px; font-weight: 400;"><tspan x="516">[is token exists]</tspan></text><text x="491" y="826" text-anchor="middle" class="loopText" style="font-size: 16px; font-weight: 400;">[is token none]</text></g><g/><g><line x1="-140" y1="357" x2="1382" y2="357" class="loopLine"/><line x1="1382" y1="357" x2="1382" y2="1407" class="loopLine"/><line x1="-140" y1="1407" x2="1382" y2="1407" class="loopLine"/><line x1="-140" y1="357" x2="-140" y2="1407" class="loopLine"/><line x1="-140" y1="1085" x2="1382" y2="1085" class="loopLine" style="stroke-dasharray: 3, 3;"/><polygon points="-140,357 -90,357 -90,370 -98.4,377 -140,377" class="labelBox"/><text x="-115" y="370" text-anchor="middle" dominant-baseline="middle" alignment-baseline="middle" class="labelText" style="font-size: 16px; font-weight: 400;">alt</text><text x="646" y="375" text-anchor="middle" class="loopText" style="font-size: 16px; font-weight: 400;"><tspan x="646">[is NULL token]</tspan></text><text x="621" y="1103" text-anchor="middle" class="loopText" style="font-size: 16px; font-weight: 400;">[is different token]</text></g><g/><g><line x1="-150" y1="238" x2="1452" y2="238" class="loopLine"/><line x1="1452" y1="238" x2="1452" y2="1506" class="loopLine"/><line x1="-150" y1="1506" x2="1452" y2="1506" class="loopLine"/><line x1="-150" y1="238" x2="-150" y2="1506" class="loopLine"/><line x1="-150" y1="1422" x2="1452" y2="1422" class="loopLine" style="stroke-dasharray: 3, 3;"/><polygon points="-150,238 -100,238 -100,251 -108.4,258 -150,258" class="labelBox"/><text x="-125" y="251" text-anchor="middle" dominant-baseline="middle" alignment-baseline="middle" class="labelText" style="font-size: 16px; font-weight: 400;">alt</text><text x="676" y="256" text-anchor="middle" class="loopText" style="font-size: 16px; font-weight: 400;"><tspan x="676">[is same company id]</tspan></text><text x="651" y="1440" text-anchor="middle" class="loopText" style="font-size: 16px; font-weight: 400;">[is different company id]</text></g><g><line x1="-160" y1="119" x2="1462" y2="119" class="loopLine"/><line x1="1462" y1="119" x2="1462" y2="1516" class="loopLine"/><line x1="-160" y1="1516" x2="1462" y2="1516" class="loopLine"/><line x1="-160" y1="119" x2="-160" y2="1516" class="loopLine"/><polygon points="-160,119 -110,119 -110,132 -118.4,139 -160,139" class="labelBox"/><text x="-135" y="132" text-anchor="middle" dominant-baseline="middle" alignment-baseline="middle" class="labelText" style="font-size: 16px; font-weight: 400;">par</text><text x="676" y="137" text-anchor="middle" class="loopText" style="font-size: 16px; font-weight: 400;"><tspan x="676">[when Code is &lt;INIT&gt;]</tspan></text></g><g/><g/><g><line x1="60" y1="1734" x2="1548" y2="1734" class="loopLine"/><line x1="1548" y1="1734" x2="1548" y2="2032" class="loopLine"/><line x1="60" y1="2032" x2="1548" y2="2032" class="loopLine"/><line x1="60" y1="1734" x2="60" y2="2032" class="loopLine"/><line x1="60" y1="1902" x2="1548" y2="1902" class="loopLine" style="stroke-dasharray: 3, 3;"/><polygon points="60,1734 110,1734 110,1747 101.6,1754 60,1754" class="labelBox"/><text x="85" y="1747" text-anchor="middle" dominant-baseline="middle" alignment-baseline="middle" class="labelText" style="font-size: 16px; font-weight: 400;">alt</text><text x="829" y="1752" text-anchor="middle" class="loopText" style="font-size: 16px; font-weight: 400;"><tspan x="829">[is same token]</tspan></text><text x="804" y="1920" text-anchor="middle" class="loopText" style="font-size: 16px; font-weight: 400;">[is null token]</text></g><g><line x1="50" y1="1689" x2="1558" y2="1689" class="loopLine"/><line x1="1558" y1="1689" x2="1558" y2="2131" class="loopLine"/><line x1="50" y1="2131" x2="1558" y2="2131" class="loopLine"/><line x1="50" y1="1689" x2="50" y2="2131" class="loopLine"/><line x1="50" y1="2047" x2="1558" y2="2047" class="loopLine" style="stroke-dasharray: 3, 3;"/><polygon points="50,1689 100,1689 100,1702 91.6,1709 50,1709" class="labelBox"/><text x="75" y="1702" text-anchor="middle" dominant-baseline="middle" alignment-baseline="middle" class="labelText" style="font-size: 16px; font-weight: 400;">alt</text><text x="829" y="1707" text-anchor="middle" class="loopText" style="font-size: 16px; font-weight: 400;"><tspan x="829">[is same company id]</tspan></text><text x="804" y="2065" text-anchor="middle" class="loopText" style="font-size: 16px; font-weight: 400;">[is different company id]</text></g><g><line x1="40" y1="1570" x2="1568" y2="1570" class="loopLine"/><line x1="1568" y1="1570" x2="1568" y2="2141" class="loopLine"/><line x1="40" y1="2141" x2="1568" y2="2141" class="loopLine"/><line x1="40" y1="1570" x2="40" y2="2141" class="loopLine"/><polygon points="40,1570 90,1570 90,1583 81.6,1590 40,1590" class="labelBox"/><text x="65" y="1583" text-anchor="middle" dominant-baseline="middle" alignment-baseline="middle" class="labelText" style="font-size: 16px; font-weight: 400;">par</text><text x="829" y="1588" text-anchor="middle" class="loopText" style="font-size: 16px; font-weight: 400;"><tspan x="829">[when Code is &lt;LOCKED&gt;]</tspan></text></g><g><rect x="901" y="2196" fill="#EDF2AE" stroke="#666" width="363" height="39" rx="0" ry="0" class="note"/><text x="1083" y="2201" text-anchor="middle" dominant-baseline="middle" alignment-baseline="middle" class="noteText" dy="1em" style="font-size: 16px; font-weight: 400;"><tspan x="1083">열린 자물쇠에 NFC 태그하여 해당 행동코드 진행</tspan></text></g><g/><g><line x1="861" y1="2363" x2="1512.5" y2="2363" class="loopLine"/><line x1="1512.5" y1="2363" x2="1512.5" y2="2689" class="loopLine"/><line x1="861" y1="2689" x2="1512.5" y2="2689" class="loopLine"/><line x1="861" y1="2363" x2="861" y2="2689" class="loopLine"/><line x1="861" y1="2457" x2="1512.5" y2="2457" class="loopLine" style="stroke-dasharray: 3, 3;"/><polygon points="861,2363 911,2363 911,2376 902.6,2383 861,2383" class="labelBox"/><text x="886" y="2376" text-anchor="middle" dominant-baseline="middle" alignment-baseline="middle" class="labelText" style="font-size: 16px; font-weight: 400;">alt</text><text x="1211.75" y="2381" text-anchor="middle" class="loopText" style="font-size: 16px; font-weight: 400;"><tspan x="1211.75">[is same company id]</tspan></text><text x="1186.75" y="2475" text-anchor="middle" class="loopText" style="font-size: 16px; font-weight: 400;">[is different company id]</text></g><g><line x1="-110.5" y1="2151" x2="1522.5" y2="2151" class="loopLine"/><line x1="1522.5" y1="2151" x2="1522.5" y2="2863" class="loopLine"/><line x1="-110.5" y1="2863" x2="1522.5" y2="2863" class="loopLine"/><line x1="-110.5" y1="2151" x2="-110.5" y2="2863" class="loopLine"/><polygon points="-110.5,2151 -60.5,2151 -60.5,2164 -68.9,2171 -110.5,2171" class="labelBox"/><text x="-85" y="2164" text-anchor="middle" dominant-baseline="middle" alignment-baseline="middle" class="labelText" style="font-size: 16px; font-weight: 400;">par</text><text x="731" y="2169" text-anchor="middle" class="loopText" style="font-size: 16px; font-weight: 400;"><tspan x="731">[when Code is &lt;LOCK&gt;]</tspan></text></g><g><rect x="100" y="2918" fill="#EDF2AE" stroke="#666" width="751" height="39" rx="0" ry="0" class="note"/><text x="476" y="2923" text-anchor="middle" dominant-baseline="middle" alignment-baseline="middle" class="noteText" dy="1em" style="font-size: 16px; font-weight: 400;"><tspan x="476">관리자는 기계를 선택 후 마스터키 버튼을 눌러 해당 기계의 잠금을 해재할 수 있다. (비밀번호 입력 필수)</tspan></text></g><g><line x1="-124" y1="3623" x2="1494" y2="3623" class="loopLine"/><line x1="1494" y1="3623" x2="1494" y2="4097" class="loopLine"/><line x1="-124" y1="4097" x2="1494" y2="4097" class="loopLine"/><line x1="-124" y1="3623" x2="-124" y2="4097" class="loopLine"/><line x1="-124" y1="3717" x2="1494" y2="3717" class="loopLine" style="stroke-dasharray: 3, 3;"/><polygon points="-124,3623 -74,3623 -74,3636 -82.4,3643 -124,3643" class="labelBox"/><text x="-99" y="3636" text-anchor="middle" dominant-baseline="middle" alignment-baseline="middle" class="labelText" style="font-size: 16px; font-weight: 400;">alt</text><text x="710" y="3641" text-anchor="middle" class="loopText" style="font-size: 16px; font-weight: 400;"><tspan x="710">[is different master token]</tspan></text><text x="685" y="3735" text-anchor="middle" class="loopText" style="font-size: 16px; font-weight: 400;">[is same master token]</text></g><g><line x1="-134" y1="3415" x2="1504" y2="3415" class="loopLine"/><line x1="1504" y1="3415" x2="1504" y2="4107" class="loopLine"/><line x1="-134" y1="4107" x2="1504" y2="4107" class="loopLine"/><line x1="-134" y1="3415" x2="-134" y2="4107" class="loopLine"/><line x1="-134" y1="3509" x2="1504" y2="3509" class="loopLine" style="stroke-dasharray: 3, 3;"/><polygon points="-134,3415 -84,3415 -84,3428 -92.4,3435 -134,3435" class="labelBox"/><text x="-109" y="3428" text-anchor="middle" dominant-baseline="middle" alignment-baseline="middle" class="labelText" style="font-size: 16px; font-weight: 400;">alt</text><text x="710" y="3433" text-anchor="middle" class="loopText" style="font-size: 16px; font-weight: 400;"><tspan x="710">[is different company id]</tspan></text><text x="685" y="3527" text-anchor="middle" class="loopText" style="font-size: 16px; font-weight: 400;">[is same company ID]</text></g><g><line x1="-144" y1="3041" x2="1514" y2="3041" class="loopLine"/><line x1="1514" y1="3041" x2="1514" y2="4117" class="loopLine"/><line x1="-144" y1="4117" x2="1514" y2="4117" class="loopLine"/><line x1="-144" y1="3041" x2="-144" y2="4117" class="loopLine"/><line x1="-144" y1="3135" x2="1514" y2="3135" class="loopLine" style="stroke-dasharray: 3, 3;"/><polygon points="-144,3041 -94,3041 -94,3054 -102.4,3061 -144,3061" class="labelBox"/><text x="-119" y="3054" text-anchor="middle" dominant-baseline="middle" alignment-baseline="middle" class="labelText" style="font-size: 16px; font-weight: 400;">alt</text><text x="710" y="3059" text-anchor="middle" class="loopText" style="font-size: 16px; font-weight: 400;"><tspan x="710">[is not MANAGER]</tspan></text><text x="685" y="3153" text-anchor="middle" class="loopText" style="font-size: 16px; font-weight: 400;">[is MANAGER]</text></g><g><line x1="-154" y1="2873" x2="1524" y2="2873" class="loopLine"/><line x1="1524" y1="2873" x2="1524" y2="4127" class="loopLine"/><line x1="-154" y1="4127" x2="1524" y2="4127" class="loopLine"/><line x1="-154" y1="2873" x2="-154" y2="4127" class="loopLine"/><polygon points="-154,2873 -104,2873 -104,2886 -112.4,2893 -154,2893" class="labelBox"/><text x="-129" y="2886" text-anchor="middle" dominant-baseline="middle" alignment-baseline="middle" class="labelText" style="font-size: 16px; font-weight: 400;">par</text><text x="710" y="2891" text-anchor="middle" class="loopText" style="font-size: 16px; font-weight: 400;"><tspan x="710">[when User is &lt;MANAGER&gt;]</tspan></text></g><text x="1113" y="80" text-anchor="middle" dominant-baseline="middle" alignment-baseline="middle" class="messageText" dy="1em" style="font-size: 16px; font-weight: 400;">&lt;INIT&gt;상태코드, 외부인증토큰, 유저의 회사코드 전송</text><line x1="877" y1="109" x2="1349" y2="109" class="messageLine0" stroke-width="2" stroke="none" marker-end="url(#arrowhead)" style="fill: none;"/><text x="1362" y="169" text-anchor="middle" dominant-baseline="middle" alignment-baseline="middle" class="messageText" dy="1em" style="font-size: 16px; font-weight: 400;">회사코드 비교</text><path d="M 1362,198 C 1422,188 1422,228 1362,218" class="messageLine0" stroke-width="2" stroke="none" marker-end="url(#arrowhead)" style="fill: none;"/><text x="1367" y="288" text-anchor="middle" dominant-baseline="middle" alignment-baseline="middle" class="messageText" dy="1em" style="font-size: 16px; font-weight: 400;">외부인증토큰 비교</text><path d="M 1367,317 C 1427,307 1427,347 1367,337" class="messageLine0" stroke-width="2" stroke="none" marker-end="url(#arrowhead)" style="fill: none;"/><text x="1118" y="407" text-anchor="middle" dominant-baseline="middle" alignment-baseline="middle" class="messageText" dy="1em" style="font-size: 16px; font-weight: 400;">UID, &lt;WRITE&gt; 전송</text><line x1="1352" y1="436" x2="884" y2="436" class="messageLine0" stroke-width="2" stroke="none" marker-end="url(#arrowhead)" style="fill: none;"/><text x="881" y="451" text-anchor="middle" dominant-baseline="middle" alignment-baseline="middle" class="messageText" dy="1em" style="font-size: 16px; font-weight: 400;">일지 입력받기</text><path d="M 881,480 C 941,470 941,510 881,500" class="messageLine0" stroke-width="2" stroke="none" marker-end="url(#arrowhead)" style="fill: none;"/><text x="475" y="525" text-anchor="middle" dominant-baseline="middle" alignment-baseline="middle" class="messageText" dy="1em" style="font-size: 16px; font-weight: 400;">일지 DATA, 유저 SESSION, UID 전송</text><line x1="871" y1="554" x2="79" y2="554" class="messageLine0" stroke-width="2" stroke="none" marker-end="url(#arrowhead)" style="fill: none;"/><text x="76" y="569" text-anchor="middle" dominant-baseline="middle" alignment-baseline="middle" class="messageText" dy="1em" style="font-size: 16px; font-weight: 400;">일지 저장(상태 &lt;INIT&gt;)</text><path d="M 76,600 C 136,590 136,630 76,620" class="messageLine0" stroke-width="2" stroke="none" marker-end="url(#arrowhead)" style="fill: none;"/><text x="76" y="645" text-anchor="middle" dominant-baseline="middle" alignment-baseline="middle" class="messageText" dy="1em" style="font-size: 16px; font-weight: 400;">유저 SESSION과 매치되는 외부인증토큰 여부 확인</text><path d="M 76,674 C 136,664 136,704 76,694" class="messageLine0" stroke-width="2" stroke="none" marker-end="url(#arrowhead)" style="fill: none;"/><text x="472" y="764" text-anchor="middle" dominant-baseline="middle" alignment-baseline="middle" class="messageText" dy="1em" style="font-size: 16px; font-weight: 400;">ERROR</text><line x1="76" y1="793" x2="868" y2="793" class="messageLine1" stroke-width="2" stroke="none" marker-end="url(#arrowhead)" style="stroke-dasharray: 3, 3; fill: none;"/><text x="76" y="853" text-anchor="middle" dominant-baseline="middle" alignment-baseline="middle" class="messageText" dy="1em" style="font-size: 16px; font-weight: 400;">새 토큰 발행</text><path d="M 76,882 C 136,872 136,912 76,902" class="messageLine1" stroke-width="2" stroke="none" marker-end="url(#arrowhead)" style="stroke-dasharray: 3, 3; fill: none;"/><text x="472" y="927" text-anchor="middle" dominant-baseline="middle" alignment-baseline="middle" class="messageText" dy="1em" style="font-size: 16px; font-weight: 400;">&lt;LOCK&gt;, 외부인증토큰 전송</text><line x1="76" y1="956" x2="868" y2="956" class="messageLine0" stroke-width="2" stroke="none" marker-end="url(#arrowhead)" style="fill: none;"/><text x="881" y="971" text-anchor="middle" dominant-baseline="middle" alignment-baseline="middle" class="messageText" dy="1em" style="font-size: 16px; font-weight: 400;">자물쇠에 태크해주세요 화면</text><path d="M 881,1000 C 941,990 941,1030 881,1020" class="messageLine0" stroke-width="2" stroke="none" marker-end="url(#arrowhead)" style="fill: none;"/><text x="1118" y="1130" text-anchor="middle" dominant-baseline="middle" alignment-baseline="middle" class="messageText" dy="1em" style="font-size: 16px; font-weight: 400;">장비ID, &lt;CHECK&gt; 전송</text><line x1="1352" y1="1159" x2="884" y2="1159" class="messageLine0" stroke-width="2" stroke="none" marker-end="url(#arrowhead)" style="fill: none;"/><text x="477" y="1174" text-anchor="middle" dominant-baseline="middle" alignment-baseline="middle" class="messageText" dy="1em" style="font-size: 16px; font-weight: 400;">장비ID, 유저SESSION 전송</text><line x1="871" y1="1203" x2="83" y2="1203" class="messageLine0" stroke-width="2" stroke="none" marker-end="url(#arrowhead)" style="fill: none;"/><text x="80" y="1218" text-anchor="middle" dominant-baseline="middle" alignment-baseline="middle" class="messageText" dy="1em" style="font-size: 16px; font-weight: 400;">장비ID를 활용해 가장 최신 작업일지 정보 조회</text><path d="M 80,1247 C 140,1237 140,1277 80,1267" class="messageLine0" stroke-width="2" stroke="none" marker-end="url(#arrowhead)" style="fill: none;"/><text x="80" y="1292" text-anchor="middle" dominant-baseline="middle" alignment-baseline="middle" class="messageText" dy="1em" style="font-size: 16px; font-weight: 400;">유저 SESSION(사원ID)를 활용해 자물쇠에 접근한 로그 기록</text><path d="M 80,1323 C 140,1313 140,1353 80,1343" class="messageLine0" stroke-width="2" stroke="none" marker-end="url(#arrowhead)" style="fill: none;"/><text x="474" y="1368" text-anchor="middle" dominant-baseline="middle" alignment-baseline="middle" class="messageText" dy="1em" style="font-size: 16px; font-weight: 400;">작업정보 전송</text><line x1="80" y1="1397" x2="868" y2="1397" class="messageLine0" stroke-width="2" stroke="none" marker-end="url(#arrowhead)" style="fill: none;"/><text x="1118" y="1467" text-anchor="middle" dominant-baseline="middle" alignment-baseline="middle" class="messageText" dy="1em" style="font-size: 16px; font-weight: 400;">ERROR</text><line x1="1352" y1="1496" x2="884" y2="1496" class="messageLine0" stroke-width="2" stroke="none" marker-end="url(#arrowhead)" style="fill: none;"/><text x="1118" y="1531" text-anchor="middle" dominant-baseline="middle" alignment-baseline="middle" class="messageText" dy="1em" style="font-size: 16px; font-weight: 400;">&lt;LOCKED&gt;상태코드, 외부인증토큰, 유저의 회사코드 전송</text><line x1="886" y1="1560" x2="1349" y2="1560" class="messageLine0" stroke-width="2" stroke="none" marker-end="url(#arrowhead)" style="fill: none;"/><text x="1377" y="1620" text-anchor="middle" dominant-baseline="middle" alignment-baseline="middle" class="messageText" dy="1em" style="font-size: 16px; font-weight: 400;">회사코드 비교</text><path d="M 1377,1649 C 1437,1639 1437,1679 1377,1669" class="messageLine0" stroke-width="2" stroke="none" marker-end="url(#arrowhead)" style="fill: none;"/><text x="1121" y="1784" text-anchor="middle" dominant-baseline="middle" alignment-baseline="middle" class="messageText" dy="1em" style="font-size: 16px; font-weight: 400;">&lt;UNLOCK&gt;, UID 전송</text><line x1="1352" y1="1813" x2="889" y2="1813" class="messageLine0" stroke-width="2" stroke="none" marker-end="url(#arrowhead)" style="fill: none;"/><text x="1382" y="1828" text-anchor="middle" dominant-baseline="middle" alignment-baseline="middle" class="messageText" dy="1em" style="font-size: 16px; font-weight: 400;">자물쇠를 열고, 외부인증토큰, 기기번호 삭제</text><path d="M 1382,1857 C 1442,1847 1442,1887 1382,1877" class="messageLine0" stroke-width="2" stroke="none" marker-end="url(#arrowhead)" style="fill: none;"/><text x="1121" y="1947" text-anchor="middle" dominant-baseline="middle" alignment-baseline="middle" class="messageText" dy="1em" style="font-size: 16px; font-weight: 400;">&lt;ALERT&gt;</text><line x1="1352" y1="1976" x2="889" y2="1976" class="messageLine0" stroke-width="2" stroke="none" marker-end="url(#arrowhead)" style="fill: none;"/><text x="718" y="1991" text-anchor="middle" dominant-baseline="middle" alignment-baseline="middle" class="messageText" dy="1em" style="font-size: 16px; font-weight: 400;">&lt;ALERT&gt; log</text><line x1="1352" y1="2022" x2="83" y2="2022" class="messageLine0" stroke-width="2" stroke="none" marker-end="url(#arrowhead)" style="fill: none;"/><text x="1121" y="2092" text-anchor="middle" dominant-baseline="middle" alignment-baseline="middle" class="messageText" dy="1em" style="font-size: 16px; font-weight: 400;">ERROR</text><line x1="1352" y1="2121" x2="889" y2="2121" class="messageLine1" stroke-width="2" stroke="none" marker-end="url(#arrowhead)" style="stroke-dasharray: 3, 3; fill: none;"/><text x="1118" y="2250" text-anchor="middle" dominant-baseline="middle" alignment-baseline="middle" class="messageText" dy="1em" style="font-size: 16px; font-weight: 400;">&lt;LOCK&gt;, 외부인증토큰, 회사코드, 장비ID 전송</text><line x1="886" y1="2279" x2="1349" y2="2279" class="messageLine0" stroke-width="2" stroke="none" marker-end="url(#arrowhead)" style="fill: none;"/><text x="1382" y="2294" text-anchor="middle" dominant-baseline="middle" alignment-baseline="middle" class="messageText" dy="1em" style="font-size: 16px; font-weight: 400;">내장 회사코드와 받은 회사코드 비교</text><path d="M 1382,2323 C 1442,2313 1442,2353 1382,2343" class="messageLine0" stroke-width="2" stroke="none" marker-end="url(#arrowhead)" style="fill: none;"/><text x="1121" y="2413" text-anchor="middle" dominant-baseline="middle" alignment-baseline="middle" class="messageText" dy="1em" style="font-size: 16px; font-weight: 400;">불일치시 ERROR</text><line x1="1352" y1="2442" x2="889" y2="2442" class="messageLine1" stroke-width="2" stroke="none" marker-end="url(#arrowhead)" style="stroke-dasharray: 3, 3; fill: none;"/><text x="1382" y="2502" text-anchor="middle" dominant-baseline="middle" alignment-baseline="middle" class="messageText" dy="1em" style="font-size: 16px; font-weight: 400;">일치시 외부인증토큰, 장비ID 저장</text><path d="M 1382,2531 C 1442,2521 1442,2561 1382,2551" class="messageLine1" stroke-width="2" stroke="none" marker-end="url(#arrowhead)" style="stroke-dasharray: 3, 3; fill: none;"/><text x="1382" y="2576" text-anchor="middle" dominant-baseline="middle" alignment-baseline="middle" class="messageText" dy="1em" style="font-size: 16px; font-weight: 400;">자물쇠 잠금 로직 수행</text><path d="M 1382,2605 C 1442,2595 1442,2635 1382,2625" class="messageLine1" stroke-width="2" stroke="none" marker-end="url(#arrowhead)" style="stroke-dasharray: 3, 3; fill: none;"/><text x="1123" y="2650" text-anchor="middle" dominant-baseline="middle" alignment-baseline="middle" class="messageText" dy="1em" style="font-size: 16px; font-weight: 400;">&lt;LOCKED&gt;, UID 전송</text><line x1="1352" y1="2679" x2="894" y2="2679" class="messageLine1" stroke-width="2" stroke="none" marker-end="url(#arrowhead)" style="stroke-dasharray: 3, 3; fill: none;"/><text x="477" y="2704" text-anchor="middle" dominant-baseline="middle" alignment-baseline="middle" class="messageText" dy="1em" style="font-size: 16px; font-weight: 400;">&lt;LOCKED&gt;, 유저 SESSION, UID 전송</text><line x1="871" y1="2733" x2="83" y2="2733" class="messageLine0" stroke-width="2" stroke="none" marker-end="url(#arrowhead)" style="fill: none;"/><text x="80" y="2748" text-anchor="middle" dominant-baseline="middle" alignment-baseline="middle" class="messageText" dy="1em" style="font-size: 16px; font-weight: 400;">로그에서 해당 작업일지를 LOCKED로 변경 후 저장</text><path d="M 80,2777 C 140,2767 140,2807 80,2797" class="messageLine0" stroke-width="2" stroke="none" marker-end="url(#arrowhead)" style="fill: none;"/><text x="474" y="2822" text-anchor="middle" dominant-baseline="middle" alignment-baseline="middle" class="messageText" dy="1em" style="font-size: 16px; font-weight: 400;">[HTTP1] 200 OK</text><line x1="80" y1="2853" x2="868" y2="2853" class="messageLine0" stroke-width="2" stroke="none" marker-end="url(#arrowhead)" style="fill: none;"/><text x="80" y="2972" text-anchor="middle" dominant-baseline="middle" alignment-baseline="middle" class="messageText" dy="1em" style="font-size: 16px; font-weight: 400;">자격 확인</text><path d="M 80,3001 C 140,2991 140,3031 80,3021" class="messageLine0" stroke-width="2" stroke="none" marker-end="url(#arrowhead)" style="fill: none;"/><text x="474" y="3091" text-anchor="middle" dominant-baseline="middle" alignment-baseline="middle" class="messageText" dy="1em" style="font-size: 16px; font-weight: 400;">Error</text><line x1="80" y1="3120" x2="868" y2="3120" class="messageLine0" stroke-width="2" stroke="none" marker-end="url(#arrowhead)" style="fill: none;"/><text x="474" y="3180" text-anchor="middle" dominant-baseline="middle" alignment-baseline="middle" class="messageText" dy="1em" style="font-size: 16px; font-weight: 400;">권한 정보(ROLE_ADMIN), Master Token 전송</text><line x1="80" y1="3211" x2="868" y2="3211" class="messageLine0" stroke-width="2" stroke="none" marker-end="url(#arrowhead)" style="fill: none;"/><text x="891" y="3226" text-anchor="middle" dominant-baseline="middle" alignment-baseline="middle" class="messageText" dy="1em" style="font-size: 16px; font-weight: 400;">NFC 태깅 화면</text><path d="M 891,3255 C 951,3245 951,3285 891,3275" class="messageLine0" stroke-width="2" stroke="none" marker-end="url(#arrowhead)" style="fill: none;"/><text x="1120" y="3300" text-anchor="middle" dominant-baseline="middle" alignment-baseline="middle" class="messageText" dy="1em" style="font-size: 16px; font-weight: 400;">회사코드, ROLE_ADMIN, Master Token 전송</text><line x1="891" y1="3331" x2="1349" y2="3331" class="messageLine0" stroke-width="2" stroke="none" marker-end="url(#arrowhead)" style="fill: none;"/><text x="1382" y="3346" text-anchor="middle" dominant-baseline="middle" alignment-baseline="middle" class="messageText" dy="1em" style="font-size: 16px; font-weight: 400;">회사코드 비교</text><path d="M 1382,3375 C 1442,3365 1442,3405 1382,3395" class="messageLine0" stroke-width="2" stroke="none" marker-end="url(#arrowhead)" style="fill: none;"/><text x="1123" y="3465" text-anchor="middle" dominant-baseline="middle" alignment-baseline="middle" class="messageText" dy="1em" style="font-size: 16px; font-weight: 400;">Error</text><line x1="1352" y1="3494" x2="894" y2="3494" class="messageLine0" stroke-width="2" stroke="none" marker-end="url(#arrowhead)" style="fill: none;"/><text x="1382" y="3554" text-anchor="middle" dominant-baseline="middle" alignment-baseline="middle" class="messageText" dy="1em" style="font-size: 16px; font-weight: 400;">Master Token 비교</text><path d="M 1382,3583 C 1442,3573 1442,3613 1382,3603" class="messageLine0" stroke-width="2" stroke="none" marker-end="url(#arrowhead)" style="fill: none;"/><text x="1123" y="3673" text-anchor="middle" dominant-baseline="middle" alignment-baseline="middle" class="messageText" dy="1em" style="font-size: 16px; font-weight: 400;">Error</text><line x1="1352" y1="3702" x2="894" y2="3702" class="messageLine0" stroke-width="2" stroke="none" marker-end="url(#arrowhead)" style="fill: none;"/><text x="1123" y="3762" text-anchor="middle" dominant-baseline="middle" alignment-baseline="middle" class="messageText" dy="1em" style="font-size: 16px; font-weight: 400;">&lt;UNLOCK&gt;. UID, 외부인증토큰, 유저session</text><line x1="1352" y1="3791" x2="894" y2="3791" class="messageLine0" stroke-width="2" stroke="none" marker-end="url(#arrowhead)" style="fill: none;"/><text x="1382" y="3806" text-anchor="middle" dominant-baseline="middle" alignment-baseline="middle" class="messageText" dy="1em" style="font-size: 16px; font-weight: 400;">외부인증토큰, 기기번호 삭제</text><path d="M 1382,3835 C 1442,3825 1442,3865 1382,3855" class="messageLine0" stroke-width="2" stroke="none" marker-end="url(#arrowhead)" style="fill: none;"/><text x="477" y="3880" text-anchor="middle" dominant-baseline="middle" alignment-baseline="middle" class="messageText" dy="1em" style="font-size: 16px; font-weight: 400;">&lt;UNLOCK&gt;, UID, 외부인증토큰, 유저session</text><line x1="871" y1="3909" x2="83" y2="3909" class="messageLine0" stroke-width="2" stroke="none" marker-end="url(#arrowhead)" style="fill: none;"/><text x="80" y="3924" text-anchor="middle" dominant-baseline="middle" alignment-baseline="middle" class="messageText" dy="1em" style="font-size: 16px; font-weight: 400;">외부인증토큰과 UID를 기준으로 정보를 찾아 로그 작성</text><path d="M 80,3953 C 140,3943 140,3983 80,3973" class="messageLine0" stroke-width="2" stroke="none" marker-end="url(#arrowhead)" style="fill: none;"/><text x="80" y="3998" text-anchor="middle" dominant-baseline="middle" alignment-baseline="middle" class="messageText" dy="1em" style="font-size: 16px; font-weight: 400;">외부인증토큰 삭제</text><path d="M 80,4027 C 140,4017 140,4057 80,4047" class="messageLine0" stroke-width="2" stroke="none" marker-end="url(#arrowhead)" style="fill: none;"/></svg>