<svg width="30" height="30" viewBox="0 0 30 30" fill="none" xmlns="http://www.w3.org/2000/svg">
<g clip-path="url(#clip0_888_592)">
<path d="M5 16.25H8.75V18.75H5V16.25ZM11.25 18.75H15V16.25H11.25V18.75ZM5 23.75H8.75V21.25H5V23.75ZM11.25 23.75H15V21.25H11.25V23.75ZM5 8.75H8.75V6.25H5V8.75ZM11.25 8.75H15V6.25H11.25V8.75ZM5 13.75H8.75V11.25H5V13.75ZM11.25 13.75H15V11.25H11.25V13.75ZM30 10V30H0V3.75C0 2.75544 0.395088 1.80161 1.09835 1.09835C1.80161 0.395088 2.75544 0 3.75 0L16.25 0C17.2446 0 18.1984 0.395088 18.9017 1.09835C19.6049 1.80161 20 2.75544 20 3.75V6.25H26.25C27.2446 6.25 28.1984 6.64509 28.9017 7.34835C29.6049 8.05161 30 9.00544 30 10ZM17.5 3.75C17.5 3.41848 17.3683 3.10054 17.1339 2.86612C16.8995 2.6317 16.5815 2.5 16.25 2.5H3.75C3.41848 2.5 3.10054 2.6317 2.86612 2.86612C2.6317 3.10054 2.5 3.41848 2.5 3.75V27.5H17.5V3.75ZM27.5 10C27.5 9.66848 27.3683 9.35054 27.1339 9.11612C26.8995 8.8817 26.5815 8.75 26.25 8.75H20V27.5H27.5V10ZM22.5 18.75H25V16.25H22.5V18.75ZM22.5 23.75H25V21.25H22.5V23.75ZM22.5 13.75H25V11.25H22.5V13.75Z" fill="black"/>
</g>
<defs>
<clipPath id="clip0_888_592">
<rect width="30" height="30" fill="white"/>
</clipPath>
</defs>
</svg>
