<svg width="627" height="592" viewBox="0 0 627 592" fill="none" xmlns="http://www.w3.org/2000/svg">
<g clip-path="url(#clip0_1677_128)">
<path d="M306.914 57.7769C295.332 57.7769 286 69.0076 286 82.9862V508.239C286 522.191 295.332 533.448 306.914 533.448H605.471C617.053 533.448 626.385 522.191 626.385 508.239V82.9862C626.385 69.0076 617.053 57.7769 605.471 57.7769H306.914ZM302.723 78.6646H609.486V512.32H302.723V78.6646Z" fill="white"/>
<path d="M461.509 120.367H561.392V174.299H461.509V120.367Z" fill="white"/>
<path d="M340.437 120.367H440.32V174.299H340.437V120.367Z" fill="white"/>
<path d="M461.509 194.019H561.392V247.951H461.509V194.019Z" fill="white"/>
<path d="M340.437 193.773H440.32V247.706H340.437V193.773Z" fill="white"/>
<path d="M461.509 268.679H561.392V322.611H461.509V268.679Z" fill="white"/>
<path d="M340.437 268.679H440.32V322.611H340.437V268.679Z" fill="white"/>
<path d="M461.509 344.195H561.392V398.127H461.509V344.195Z" fill="white"/>
<path d="M340.437 343.707H440.32V397.639H340.437V343.707Z" fill="white"/>
<path d="M461.509 418.428H561.392V472.36H461.509V418.428Z" fill="white"/>
<path d="M340.437 418.428H440.32V472.36H340.437V418.428Z" fill="white"/>
<path fill-rule="evenodd" clip-rule="evenodd" d="M356.349 -0.00390625V591.318L0 532.176V59.1155L356.349 -0.00390625ZM164.119 260.973L139.443 196.843L97.7745 199.324L140.991 297.094L92.9727 394.57L134.508 397.051L164.119 328.385C165.233 325.36 165.401 323.827 165.581 322.192C165.6 322.017 165.619 321.842 165.64 321.663C165.75 322.283 165.809 322.796 165.866 323.29C166.048 324.871 166.207 326.255 167.961 330.306L197.385 400.786L245.803 403.667L191.089 295.653C207.877 260.306 225.371 225.299 243.562 190.654L198.639 193.321L169.401 260.973C167.59 265.885 166.92 268.376 167.107 271.564C166.699 268.827 165.899 264.762 164.119 260.973Z" fill="white"/>
</g>
<defs>
<clipPath id="clip0_1677_128">
<rect width="626.384" height="591.317" fill="white"/>
</clipPath>
</defs>
</svg>
