<svg width="30" height="32" viewBox="0 0 30 32" fill="none" xmlns="http://www.w3.org/2000/svg">
<path d="M28.823 25.7985C28.0705 24.0583 26.9784 22.4777 25.6076 21.1446C24.241 19.8077 22.6221 18.7417 20.8404 18.0057C20.8244 17.9979 20.8085 17.994 20.7925 17.9862C23.2779 16.2337 24.8936 13.379 24.8936 10.1583C24.8936 4.82286 20.4654 0.5 15 0.5C9.53461 0.5 5.10645 4.82286 5.10645 10.1583C5.10645 13.379 6.72213 16.2337 9.20748 17.9901C9.19153 17.9979 9.17557 18.0018 9.15961 18.0095C7.37239 18.7456 5.76868 19.801 4.39236 21.1485C3.02286 22.4826 1.93096 24.063 1.17695 25.8024C0.436223 27.5053 0.0367296 29.331 9.97573e-05 31.1807C-0.000965016 31.2222 0.00650313 31.2636 0.0220644 31.3023C0.0376256 31.341 0.0609649 31.3762 0.0907071 31.406C0.120449 31.4358 0.155993 31.4594 0.195243 31.4756C0.234493 31.4917 0.276656 31.5 0.319247 31.5H2.71285C2.88838 31.5 3.02801 31.3637 3.03199 31.1962C3.11178 28.1897 4.34847 25.374 6.53463 23.2398C8.79658 21.0317 11.8006 19.8166 15 19.8166C18.1994 19.8166 21.2034 21.0317 23.4654 23.2398C25.6515 25.374 26.8882 28.1897 26.968 31.1962C26.972 31.3676 27.1116 31.5 27.2872 31.5H29.6808C29.7233 31.5 29.7655 31.4917 29.8048 31.4756C29.844 31.4594 29.8796 31.4358 29.9093 31.406C29.939 31.3762 29.9624 31.341 29.9779 31.3023C29.9935 31.2636 30.001 31.2222 29.9999 31.1807C29.96 29.3191 29.5651 27.5082 28.823 25.7985ZM15 16.8568C13.1689 16.8568 11.4455 16.1597 10.149 14.894C8.85243 13.6283 8.13834 11.9459 8.13834 10.1583C8.13834 8.37073 8.85243 6.68832 10.149 5.42261C11.4455 4.15691 13.1689 3.4598 15 3.4598C16.8311 3.4598 18.5545 4.15691 19.851 5.42261C21.1476 6.68832 21.8617 8.37073 21.8617 10.1583C21.8617 11.9459 21.1476 13.6283 19.851 14.894C18.5545 16.1597 16.8311 16.8568 15 16.8568Z" fill="black"/>
</svg>
