<svg width="30" height="32" viewBox="0 0 30 32" fill="none" xmlns="http://www.w3.org/2000/svg">
<path d="M28.2228 25.8281C27.4859 24.0827 26.4165 22.4973 25.0743 21.1602C23.7362 19.8192 22.151 18.75 20.4063 18.0117C20.3907 18.0039 20.3751 18 20.3595 17.9922C22.7931 16.2344 24.3751 13.3711 24.3751 10.1406C24.3751 4.78906 20.0392 0.453125 14.6876 0.453125C9.33604 0.453125 5.0001 4.78906 5.0001 10.1406C5.0001 13.3711 6.58213 16.2344 9.01572 17.9961C9.0001 18.0039 8.98447 18.0078 8.96885 18.0156C7.21885 18.7539 5.64854 19.8125 4.30088 21.1641C2.9599 22.5022 1.89074 24.0874 1.15244 25.832C0.427137 27.5401 0.0359646 29.3713 9.76797e-05 31.2266C-0.000944918 31.2683 0.00636769 31.3097 0.0216048 31.3486C0.036842 31.3874 0.0596952 31.4228 0.088818 31.4526C0.117941 31.4825 0.152744 31.5062 0.191176 31.5224C0.229609 31.5386 0.270894 31.5469 0.312598 31.5469H2.65635C2.82822 31.5469 2.96494 31.4102 2.96885 31.2422C3.04697 28.2266 4.25791 25.4023 6.39853 23.2617C8.61338 21.0469 11.5548 19.8281 14.6876 19.8281C17.8204 19.8281 20.7618 21.0469 22.9767 23.2617C25.1173 25.4023 26.3282 28.2266 26.4063 31.2422C26.4103 31.4141 26.547 31.5469 26.7188 31.5469H29.0626C29.1043 31.5469 29.1456 31.5386 29.184 31.5224C29.2225 31.5062 29.2573 31.4825 29.2864 31.4526C29.3155 31.4228 29.3384 31.3874 29.3536 31.3486C29.3688 31.3097 29.3761 31.2683 29.3751 31.2266C29.336 29.3594 28.9493 27.543 28.2228 25.8281ZM14.6876 16.8594C12.8946 16.8594 11.2071 16.1602 9.9376 14.8906C8.66807 13.6211 7.96885 11.9336 7.96885 10.1406C7.96885 8.34766 8.66807 6.66016 9.9376 5.39062C11.2071 4.12109 12.8946 3.42188 14.6876 3.42188C16.4806 3.42188 18.1681 4.12109 19.4376 5.39062C20.7071 6.66016 21.4063 8.34766 21.4063 10.1406C21.4063 11.9336 20.7071 13.6211 19.4376 14.8906C18.1681 16.1602 16.4806 16.8594 14.6876 16.8594Z" fill="black"/>
</svg>
