<svg width="30" height="37" viewBox="0 0 30 37" fill="none" xmlns="http://www.w3.org/2000/svg">
<path d="M22.5 12.8151H7.5V11.3151C7.49954 9.65219 8.05174 8.0363 9.06977 6.72145C10.0878 5.4066 11.514 4.46737 13.124 4.05143C14.734 3.63548 16.4366 3.7664 17.9642 4.42362C19.4917 5.08083 20.7575 6.22706 21.5625 7.68209C21.6581 7.85435 21.7868 8.00609 21.941 8.12864C22.0953 8.25119 22.2722 8.34216 22.4617 8.39634C22.6511 8.45052 22.8493 8.46686 23.0451 8.44443C23.2408 8.42199 23.4302 8.36123 23.6025 8.26559C23.7748 8.16995 23.9265 8.04133 24.049 7.88705C24.1716 7.73277 24.2626 7.55587 24.3167 7.36644C24.3709 7.17701 24.3873 6.97876 24.3648 6.78301C24.3424 6.58726 24.2816 6.39785 24.186 6.22559C23.0584 4.18906 21.2861 2.58497 19.1476 1.66546C17.009 0.745952 14.6255 0.563165 12.3718 1.14583C10.1181 1.7285 8.12185 3.04359 6.69694 4.88437C5.27203 6.72515 4.49922 8.98725 4.5 11.3151V13.4511C3.16404 14.0341 2.02694 14.9939 1.22775 16.2129C0.428558 17.4319 0.00191756 18.8574 0 20.3151V29.3151C0.00238179 31.3035 0.793323 33.2098 2.19933 34.6158C3.60534 36.0218 5.51161 36.8127 7.5 36.8151H22.5C24.4884 36.8127 26.3947 36.0218 27.8007 34.6158C29.2067 33.2098 29.9976 31.3035 30 29.3151V20.3151C29.9976 18.3267 29.2067 16.4204 27.8007 15.0144C26.3947 13.6084 24.4884 12.8175 22.5 12.8151ZM27 29.3151C27 30.5086 26.5259 31.6532 25.682 32.4971C24.8381 33.341 23.6935 33.8151 22.5 33.8151H7.5C6.30653 33.8151 5.16193 33.341 4.31802 32.4971C3.47411 31.6532 3 30.5086 3 29.3151V20.3151C3 19.1216 3.47411 17.977 4.31802 17.1331C5.16193 16.2892 6.30653 15.8151 7.5 15.8151H22.5C23.6935 15.8151 24.8381 16.2892 25.682 17.1331C26.5259 17.977 27 19.1216 27 20.3151V29.3151Z" fill="#111827"/>
</svg>
