<svg width="29" height="35" viewBox="0 0 29 35" fill="none" xmlns="http://www.w3.org/2000/svg">
<path d="M21.25 12.1484H7.08333V10.7317C7.0829 9.16117 7.60442 7.63505 8.5659 6.39325C9.52738 5.15145 10.8743 4.2644 12.3949 3.87156C13.9155 3.47872 15.5235 3.60237 16.9662 4.22307C18.4088 4.84377 19.6043 5.92632 20.3646 7.30052C20.4549 7.46321 20.5764 7.60652 20.7221 7.72226C20.8678 7.838 21.0349 7.92391 21.2138 7.97509C21.3927 8.02626 21.5799 8.04169 21.7648 8.0205C21.9497 7.99932 22.1286 7.94192 22.2913 7.8516C22.4539 7.76128 22.5972 7.6398 22.713 7.49409C22.8287 7.34838 22.9146 7.18131 22.9658 7.0024C23.017 6.82349 23.0324 6.63626 23.0112 6.45139C22.99 6.26651 22.9327 6.08763 22.8423 5.92493C21.7774 4.00155 20.1035 2.48657 18.0838 1.61814C16.0641 0.74972 13.813 0.577088 11.6845 1.12739C9.55595 1.67768 7.67064 2.91971 6.32489 4.65822C4.97914 6.39674 4.24927 8.53317 4.25 10.7317V12.749C2.98826 13.2997 1.91433 14.2061 1.15954 15.3574C0.404749 16.5087 0.00181103 17.855 0 19.2317V27.7317C0.00224947 29.6096 0.74925 31.41 2.07714 32.7379C3.40504 34.0658 5.20541 34.8128 7.08333 34.815H21.25C23.1279 34.8128 24.9283 34.0658 26.2562 32.7379C27.5841 31.41 28.3311 29.6096 28.3333 27.7317V19.2317C28.3311 17.3538 27.5841 15.5534 26.2562 14.2255C24.9283 12.8976 23.1279 12.1506 21.25 12.1484ZM25.5 27.7317C25.5 28.8589 25.0522 29.9399 24.2552 30.7369C23.4582 31.5339 22.3772 31.9817 21.25 31.9817H7.08333C5.95616 31.9817 4.87516 31.5339 4.07813 30.7369C3.2811 29.9399 2.83333 28.8589 2.83333 27.7317V19.2317C2.83333 18.1045 3.2811 17.0235 4.07813 16.2265C4.87516 15.4295 5.95616 14.9817 7.08333 14.9817H21.25C22.3772 14.9817 23.4582 15.4295 24.2552 16.2265C25.0522 17.0235 25.5 18.1045 25.5 19.2317V27.7317Z" fill="#111827"/>
</svg>
